<svg xmlns="http://www.w3.org/2000/svg" version="1.1" xmlns:xlink="http://www.w3.org/1999/xlink" xmlns:svgjs="http://svgjs.dev/svgjs" width="1000" height="1000" viewBox="0 0 1000 1000"><rect width="1000" height="1000" fill="#000000"></rect><g transform="matrix(0.7,0,0,0.7,149.57575757575756,282.1265587044535)"><svg viewBox="0 0 396 247" data-background-color="#6936f5" preserveAspectRatio="xMidYMid meet" height="623" width="1000" xmlns="http://www.w3.org/2000/svg" xmlns:xlink="http://www.w3.org/1999/xlink"><g id="tight-bounds" transform="matrix(1,0,0,1,0.2400000000000091,-0.09999999999999432)"><svg viewBox="0 0 395.52 247.2" height="247.2" width="395.52"><g><svg></svg></g><g><svg viewBox="0 0 395.52 247.2" height="247.2" width="395.52"><g transform="matrix(1,0,0,1,39.55199999999999,73.9117152124238)"><svg viewBox="0 0 316.416 99.37656957515239" height="99.37656957515239" width="316.416"><g><svg viewBox="0 0 424.6179704711922 133.3594928366152" height="99.37656957515239" width="316.416"><g><rect width="3.6851653707140564" height="133.3594928366152" x="94.86977533421101" y="0" fill="#ffffff" opacity="1" stroke-width="0" stroke="transparent" fill-opacity="1" class="rect-r$-0" data-fill-palette-color="primary" rx="1%" id="r$-0" data-palette-color="#ffffff"></rect></g><g transform="matrix(1,0,0,1,108.20197047119224,0.3317400319318722)"><svg viewBox="0 0 316.416 132.69601277275146" height="132.69601277275146" width="316.416"><g id="textblocktransform"><svg viewBox="0 0 316.416 132.69601277275146" height="132.69601277275146" width="316.416" id="textblock"><g><svg viewBox="0 0 316.416 132.69601277275146" height="132.69601277275146" width="316.416"><g transform="matrix(1,0,0,1,0,0)"><svg width="316.416" viewBox="2.329999999999999 -35.7 281.8500000000001 115.2" height="132.69601277275146" data-palette-color="#ffffff"><svg></svg><svg></svg><svg></svg><g class="wordmark-text-0" data-fill-palette-color="primary" id="text-0"><path d="M8.03 0h-5.7l4.75-35h4.57l8.9 16.75 8.85-16.75h4.6l4.73 35h-5.71l-3.44-27.6 1.45 0.27-10.43 19.43-10.57-19.4 1.45-0.28zM59.93 0.7v0c-3.333 0-6.3-0.75-8.9-2.25-2.6-1.5-4.643-3.613-6.13-6.34-1.48-2.727-2.22-5.93-2.22-9.61v0c0-3.687 0.74-6.89 2.22-9.61 1.487-2.727 3.53-4.84 6.13-6.34 2.6-1.5 5.567-2.25 8.9-2.25v0c3.333 0 6.3 0.75 8.9 2.25 2.6 1.5 4.64 3.613 6.12 6.34 1.487 2.72 2.23 5.923 2.23 9.61v0c0 3.68-0.743 6.883-2.23 9.61-1.48 2.727-3.52 4.84-6.12 6.34-2.6 1.5-5.567 2.25-8.9 2.25zM59.93-4.58v0c2.533 0 4.65-0.567 6.35-1.7 1.7-1.133 2.977-2.677 3.83-4.63 0.86-1.96 1.29-4.157 1.29-6.59v0c0-2.433-0.43-4.63-1.29-6.59-0.853-1.96-2.13-3.507-3.83-4.64-1.7-1.133-3.817-1.7-6.35-1.7v0c-2.533 0-4.65 0.567-6.35 1.7-1.7 1.133-2.98 2.68-3.84 4.64-0.86 1.96-1.29 4.157-1.29 6.59v0c0 2.433 0.43 4.63 1.29 6.59 0.86 1.953 2.14 3.497 3.84 4.63 1.7 1.133 3.817 1.7 6.35 1.7zM103.8 0h-20.8v-35h5.45v30.1h15.35zM130.3 0h-22.27v-35h21.8v5.1h-16.28v9.07h12.83v5.1h-12.83v10.63h16.75zM151.25 0.7v0c-3.467 0-6.537-0.75-9.21-2.25-2.673-1.5-4.77-3.613-6.29-6.34-1.513-2.727-2.27-5.93-2.27-9.61v0c0-3.687 0.77-6.89 2.31-9.61 1.54-2.727 3.67-4.84 6.39-6.34 2.713-1.5 5.803-2.25 9.27-2.25v0c1.8 0 3.493 0.19 5.08 0.57 1.58 0.387 2.963 0.88 4.15 1.48v0l-0.6 5.12c-1.253-0.6-2.597-1.1-4.03-1.5-1.433-0.4-2.983-0.6-4.65-0.6v0c-2.633 0-4.833 0.58-6.6 1.74-1.767 1.16-3.103 2.727-4.01 4.7-0.907 1.973-1.36 4.203-1.36 6.69v0c0 2.48 0.443 4.71 1.33 6.69 0.893 1.973 2.22 3.54 3.98 4.7 1.76 1.153 3.94 1.73 6.54 1.73v0c1.713 0 3.273-0.187 4.68-0.56 1.413-0.373 2.787-0.877 4.12-1.51v0l0.6 5.12c-1.287 0.587-2.717 1.073-4.29 1.46-1.573 0.38-3.287 0.57-5.14 0.57zM180.28 0.7v0c-3.287 0-6-0.637-8.14-1.91-2.14-1.28-3.737-3.087-4.79-5.42-1.047-2.333-1.57-5.1-1.57-8.3v0-20.07h5.45v18.65c0 1.613 0.12 3.147 0.36 4.6 0.24 1.447 0.677 2.72 1.31 3.82 0.633 1.1 1.547 1.967 2.74 2.6 1.193 0.633 2.74 0.95 4.64 0.95v0c1.913 0 3.467-0.317 4.66-0.95 1.193-0.633 2.107-1.503 2.74-2.61 0.633-1.107 1.067-2.38 1.3-3.82 0.233-1.447 0.35-2.977 0.35-4.59v0-18.65h5.45v20.07c0 3.2-0.527 5.967-1.58 8.3-1.047 2.333-2.643 4.14-4.79 5.42-2.14 1.273-4.85 1.91-8.13 1.91zM223.05 0h-20.8v-35h5.45v30.1h15.35zM246.28-13.83v4.88h-14.85v-4.88zM248.58 0l-10.48-29.68h1.5l-10.47 29.68h-5.5l12.5-35h5.45l12.5 35zM263.88 0h-5.6v-35h11.97c2.433 0 4.553 0.38 6.36 1.14 1.813 0.753 3.22 1.913 4.22 3.48 1 1.567 1.5 3.567 1.5 6v0c0 2.467-0.53 4.49-1.59 6.07-1.06 1.573-2.54 2.817-4.44 3.73v0l7.88 14.58h-6.38l-6.95-13.38c-0.047 0-0.087 0-0.12 0-0.033 0-0.077 0-0.13 0v0h-6.72zM263.88-30.28v12.18h5.62c2.487 0 4.3-0.56 5.44-1.68 1.14-1.113 1.71-2.597 1.71-4.45v0c0-1.913-0.567-3.4-1.7-4.46-1.133-1.06-2.917-1.59-5.35-1.59v0z" fill="#ffffff" fill-rule="nonzero" stroke="none" stroke-width="1" stroke-linecap="butt" stroke-linejoin="miter" stroke-miterlimit="10" stroke-dasharray="" stroke-dashoffset="0" font-family="none" font-weight="none" font-size="none" text-anchor="none" style="mix-blend-mode: normal" data-fill-palette-color="primary" opacity="1"></path><path transform="translate(0,39.4)" d="M14 0.7v0c-1.433 0-2.887-0.12-4.36-0.36-1.473-0.247-2.837-0.553-4.09-0.92-1.247-0.367-2.27-0.733-3.07-1.1v0l0.7-5.8c1.013 0.5 2.157 0.983 3.43 1.45 1.28 0.467 2.627 0.86 4.04 1.18 1.42 0.313 2.853 0.47 4.3 0.47v0c2.02 0 3.63-0.377 4.83-1.13 1.2-0.76 1.8-1.94 1.8-3.54v0c0-1.2-0.317-2.18-0.95-2.94-0.633-0.76-1.59-1.417-2.87-1.97-1.273-0.56-2.893-1.15-4.86-1.77v0c-1.88-0.6-3.6-1.297-5.16-2.09-1.56-0.807-2.807-1.853-3.74-3.14-0.933-1.293-1.4-2.983-1.4-5.07v0c0-1.88 0.48-3.55 1.44-5.01 0.96-1.46 2.373-2.6 4.24-3.42 1.867-0.827 4.173-1.24 6.92-1.24v0c2.233 0 4.313 0.247 6.24 0.74 1.927 0.487 3.54 1.013 4.84 1.58v0l-0.55 5.7c-1.933-1.033-3.763-1.783-5.49-2.25-1.727-0.467-3.497-0.7-5.31-0.7v0c-1.967 0-3.557 0.35-4.77 1.05-1.207 0.7-1.81 1.81-1.81 3.33v0c0 1.1 0.29 1.987 0.87 2.66 0.587 0.673 1.447 1.253 2.58 1.74 1.133 0.48 2.517 0.98 4.15 1.5v0c2.487 0.747 4.597 1.597 6.33 2.55 1.733 0.947 3.053 2.103 3.96 3.47 0.907 1.367 1.36 3.06 1.36 5.08v0c0 1.3-0.23 2.54-0.69 3.72-0.453 1.187-1.207 2.25-2.26 3.19-1.047 0.94-2.443 1.683-4.19 2.23-1.74 0.54-3.893 0.81-6.46 0.81zM48.28 0.7v0c-3.34 0-6.307-0.75-8.9-2.25-2.6-1.5-4.643-3.613-6.13-6.34-1.487-2.727-2.23-5.93-2.23-9.61v0c0-3.687 0.743-6.89 2.23-9.61 1.487-2.727 3.53-4.84 6.13-6.34 2.593-1.5 5.56-2.25 8.9-2.25v0c3.333 0 6.297 0.75 8.89 2.25 2.607 1.5 4.65 3.613 6.13 6.34 1.487 2.72 2.23 5.923 2.23 9.61v0c0 3.68-0.743 6.883-2.23 9.61-1.48 2.727-3.523 4.84-6.13 6.34-2.593 1.5-5.557 2.25-8.89 2.25zM48.28-4.58v0c2.533 0 4.65-0.567 6.35-1.7 1.693-1.133 2.97-2.677 3.83-4.63 0.86-1.96 1.29-4.157 1.29-6.59v0c0-2.433-0.43-4.63-1.29-6.59-0.86-1.96-2.137-3.507-3.83-4.64-1.7-1.133-3.817-1.7-6.35-1.7v0c-2.533 0-4.653 0.567-6.36 1.7-1.693 1.133-2.97 2.68-3.83 4.64-0.86 1.96-1.29 4.157-1.29 6.59v0c0 2.433 0.43 4.63 1.29 6.59 0.86 1.953 2.137 3.497 3.83 4.63 1.707 1.133 3.827 1.7 6.36 1.7zM92.15 0h-20.8v-35h5.45v30.1h15.35zM109.73 0.7v0c-3.287 0-6-0.637-8.14-1.91-2.14-1.28-3.737-3.087-4.79-5.42-1.047-2.333-1.57-5.1-1.57-8.3v0-20.07h5.45v18.65c0 1.613 0.12 3.147 0.36 4.6 0.24 1.447 0.677 2.72 1.31 3.82 0.633 1.1 1.547 1.967 2.74 2.6 1.193 0.633 2.74 0.95 4.64 0.95v0c1.913 0 3.467-0.317 4.66-0.95 1.193-0.633 2.107-1.503 2.74-2.61 0.633-1.107 1.067-2.38 1.3-3.82 0.233-1.447 0.35-2.977 0.35-4.59v0-18.65h5.45v20.07c0 3.2-0.527 5.967-1.58 8.3-1.047 2.333-2.643 4.14-4.79 5.42-2.14 1.273-4.85 1.91-8.13 1.91zM145.5 0h-13.8v-35h11.98c3.233 0 5.71 0.713 7.43 2.14 1.727 1.42 2.59 3.54 2.59 6.36v0c0 2-0.44 3.717-1.32 5.15-0.887 1.433-2.213 2.417-3.98 2.95v0l0.43-0.98c2.58 0.487 4.547 1.513 5.9 3.08 1.347 1.567 2.02 3.673 2.02 6.32v0c0 3.1-1 5.54-3 7.32-2 1.773-4.75 2.66-8.25 2.66zM137.15-15.9v11h7.73c1.847 0 3.323-0.43 4.43-1.29 1.113-0.86 1.67-2.247 1.67-4.16v0c0-2.087-0.573-3.533-1.72-4.34-1.14-0.807-2.6-1.21-4.38-1.21v0zM137.15-30.13v9.33h5.78c1.633 0 2.92-0.33 3.86-0.99 0.94-0.66 1.41-1.88 1.41-3.66v0c0-1.8-0.47-3.03-1.41-3.69-0.94-0.66-2.227-0.99-3.86-0.99v0zM167.63 0h-5.45v-35h5.45zM196.3 0h-20.8v-35h5.45v30.1h15.35zM205.98 0h-5.45v-35h5.45zM226.2 0h-5.45v-29.9h-10.07v-5.1h25.6v5.1h-10.08zM254.33 0h-5.45v-14.73l-12.33-20.27h6.08l10.22 17.32h-2.55l10.25-17.32h6.08l-12.3 20.27z" fill="#ffffff" fill-rule="nonzero" stroke="none" stroke-width="1" stroke-linecap="butt" stroke-linejoin="miter" stroke-miterlimit="10" stroke-dasharray="" stroke-dashoffset="0" font-family="none" font-weight="none" font-size="none" text-anchor="none" style="mix-blend-mode: normal" data-fill-palette-color="primary" opacity="1"></path><path transform="translate(0,78.8)" d="M9.53 0h-5.6v-35h11.95c2.48 0 4.63 0.387 6.45 1.16 1.813 0.773 3.207 1.993 4.18 3.66 0.98 1.667 1.47 3.833 1.47 6.5v0c0 2.667-0.49 4.847-1.47 6.54-0.973 1.693-2.363 2.94-4.17 3.74-1.807 0.8-3.943 1.2-6.41 1.2v0h-6.4zM9.53-30.28v13.35h5.67c2.4 0 4.2-0.54 5.4-1.62 1.2-1.087 1.8-2.77 1.8-5.05v0c0-2.3-0.583-3.987-1.75-5.06-1.167-1.08-3-1.62-5.5-1.62v0zM38.63 0h-5.61v-35h11.98c2.433 0 4.553 0.38 6.36 1.14 1.813 0.753 3.22 1.913 4.22 3.48 1 1.567 1.5 3.567 1.5 6v0c0 2.467-0.53 4.49-1.59 6.07-1.06 1.573-2.54 2.817-4.44 3.73v0l7.88 14.58h-6.38l-6.95-13.38c-0.047 0-0.087 0-0.12 0-0.04 0-0.083 0-0.13 0v0h-6.72zM38.63-30.28v12.18h5.62c2.487 0 4.3-0.56 5.44-1.68 1.14-1.113 1.71-2.597 1.71-4.45v0c0-1.913-0.567-3.4-1.7-4.46-1.133-1.06-2.917-1.59-5.35-1.59v0zM85.95 0h-22.28v-35h21.8v5.1h-16.27v9.07h12.83v5.1h-12.83v10.63h16.75zM104.7 0h-13.03v-35h13.03c3.367 0 6.353 0.69 8.96 2.07 2.613 1.387 4.66 3.383 6.14 5.99 1.487 2.607 2.23 5.753 2.23 9.44v0c0 3.68-0.743 6.827-2.23 9.44-1.48 2.607-3.527 4.6-6.14 5.98-2.607 1.387-5.593 2.08-8.96 2.08zM97.13-30.1v25.2h7.57c2.5 0 4.59-0.52 6.27-1.56 1.687-1.047 2.96-2.513 3.82-4.4 0.86-1.893 1.29-4.107 1.29-6.64v0c0-2.533-0.43-4.747-1.29-6.64-0.86-1.893-2.133-3.36-3.82-4.4-1.68-1.04-3.77-1.56-6.27-1.56v0zM133.32 0h-5.44v-35h5.44zM156.93 0.7v0c-3.473 0-6.547-0.75-9.22-2.25-2.673-1.5-4.767-3.613-6.28-6.34-1.52-2.727-2.28-5.93-2.28-9.61v0c0-3.687 0.77-6.89 2.31-9.61 1.547-2.727 3.677-4.84 6.39-6.34 2.72-1.5 5.813-2.25 9.28-2.25v0c1.8 0 3.49 0.19 5.07 0.57 1.587 0.387 2.97 0.88 4.15 1.48v0l-0.6 5.12c-1.247-0.6-2.587-1.1-4.02-1.5-1.433-0.4-2.983-0.6-4.65-0.6v0c-2.633 0-4.837 0.58-6.61 1.74-1.76 1.16-3.097 2.727-4.01 4.7-0.907 1.973-1.36 4.203-1.36 6.69v0c0 2.48 0.447 4.71 1.34 6.69 0.893 1.973 2.217 3.54 3.97 4.7 1.76 1.153 3.94 1.73 6.54 1.73v0c1.72 0 3.283-0.187 4.69-0.56 1.407-0.373 2.777-0.877 4.11-1.51v0l0.6 5.12c-1.28 0.587-2.71 1.073-4.29 1.46-1.573 0.38-3.283 0.57-5.13 0.57zM184.2 0h-5.45v-29.9h-10.07v-5.1h25.6v5.1h-10.08zM213.2 0.7v0c-3.333 0-6.3-0.75-8.9-2.25-2.6-1.5-4.64-3.613-6.12-6.34-1.487-2.727-2.23-5.93-2.23-9.61v0c0-3.687 0.743-6.89 2.23-9.61 1.48-2.727 3.52-4.84 6.12-6.34 2.6-1.5 5.567-2.25 8.9-2.25v0c3.333 0 6.3 0.75 8.9 2.25 2.6 1.5 4.643 3.613 6.13 6.34 1.48 2.72 2.22 5.923 2.22 9.61v0c0 3.68-0.74 6.883-2.22 9.61-1.487 2.727-3.53 4.84-6.13 6.34-2.6 1.5-5.567 2.25-8.9 2.25zM213.2-4.58v0c2.533 0 4.65-0.567 6.35-1.7 1.7-1.133 2.98-2.677 3.84-4.63 0.86-1.96 1.29-4.157 1.29-6.59v0c0-2.433-0.43-4.63-1.29-6.59-0.86-1.96-2.14-3.507-3.84-4.64-1.7-1.133-3.817-1.7-6.35-1.7v0c-2.533 0-4.65 0.567-6.35 1.7-1.7 1.133-2.98 2.68-3.84 4.64-0.853 1.96-1.28 4.157-1.28 6.59v0c0 2.433 0.427 4.63 1.28 6.59 0.86 1.953 2.14 3.497 3.84 4.63 1.7 1.133 3.817 1.7 6.35 1.7zM241.88 0h-5.6v-35h11.97c2.433 0 4.553 0.38 6.36 1.14 1.813 0.753 3.22 1.913 4.22 3.48 1 1.567 1.5 3.567 1.5 6v0c0 2.467-0.53 4.49-1.59 6.07-1.06 1.573-2.54 2.817-4.44 3.73v0l7.88 14.58h-6.38l-6.95-13.38c-0.047 0-0.087 0-0.12 0-0.033 0-0.077 0-0.13 0v0h-6.72zM241.88-30.28v12.18h5.62c2.487 0 4.3-0.56 5.44-1.68 1.14-1.113 1.71-2.597 1.71-4.45v0c0-1.913-0.567-3.4-1.7-4.46-1.133-1.06-2.917-1.59-5.35-1.59v0z" fill="#ffffff" fill-rule="nonzero" stroke="none" stroke-width="1" stroke-linecap="butt" stroke-linejoin="miter" stroke-miterlimit="10" stroke-dasharray="" stroke-dashoffset="0" font-family="none" font-weight="none" font-size="none" text-anchor="none" style="mix-blend-mode: normal" data-fill-palette-color="primary" opacity="1"></path></g></svg></g></svg></g></svg></g></svg></g><g transform="matrix(1,0,0,1,0,0.3317400319318722)"><svg viewBox="0 0 85.22274556794385 132.69601277275146" height="132.69601277275146" width="85.22274556794385"><g><svg xmlns="http://www.w3.org/2000/svg" xmlns:xlink="http://www.w3.org/1999/xlink" version="1.1" x="0" y="0" viewBox="17.998868131868132 1.2903534720206753 59.999801568814306 93.42264652797934" enable-background="new 0 0 96 96" xml:space="preserve" height="132.69601277275146" width="85.22274556794385" class="icon-icon-0" data-fill-palette-color="accent" id="icon-0"><path d="M77.716 91.68L60 62.156V42.712h4c1.1 0 2-0.9 2-2s-0.9-2-2-2h-6c-1.1 0-2 0.9-2 2v18H40v-18c0-1.1-0.896-2-2-2h-6c-1.104 0-2 0.9-2 2s0.896 2 2 2h4v19.444L18.284 91.68c-0.372 0.625-0.38 1.393-0.024 2.016 0.356 0.633 1.02 1.017 1.74 1.017h56c0.721 0 1.384-0.384 1.744-1.017C78.092 93.072 78.084 92.296 77.716 91.68z" fill="#ffffff" data-fill-palette-color="accent"></path><path d="M61.756 19.272c1.112-1.768 2.064-3.552 2.704-5.276 1.735-4.672 1.416-8.524-0.908-10.836-3.168-3.172-9.588-2.148-16.124 1.864-6.2-3.76-12.084-4.76-14.984-1.864-2.208 2.208-2.4 5.952-0.54 10.552 0.584 1.448 1.412 2.94 2.34 4.448-1.112 1.768-2.064 3.548-2.7 5.272-1.736 4.672-1.416 8.524 0.904 10.836 1.312 1.312 3.176 2.008 5.396 2.008 3.136 0 6.912-1.376 10.725-3.764 3.66 2.26 7.211 3.576 10.119 3.576 2.004 0 3.692-0.62 4.877-1.808 2.207-2.208 2.403-5.952 0.539-10.552C63.512 22.272 62.684 20.776 61.756 19.272L61.756 19.272zM58.16 5.152c1.152 0 2.012 0.276 2.568 0.836 1.111 1.108 1.104 3.584-0.017 6.612-0.38 1.008-0.88 2.052-1.452 3.092-1.168-1.496-2.428-2.98-3.844-4.404-1.436-1.432-2.924-2.684-4.42-3.836C53.641 5.996 56.16 5.152 58.16 5.152zM56.948 19.236c-1.14 1.548-2.416 3.084-3.88 4.548-1.448 1.448-2.992 2.748-4.532 3.888-1.66-1.208-3.38-2.624-5.124-4.372-1.652-1.648-3.108-3.384-4.364-5.104 1.14-1.552 2.416-3.084 3.88-4.552 1.452-1.448 2.992-2.752 4.54-3.888 1.66 1.208 3.38 2.632 5.116 4.372C54.244 15.784 55.691 17.508 56.948 19.236zM35.612 12.204c-1.168-2.88-1.296-5.264-0.34-6.216 0.424-0.42 1.112-0.64 2.048-0.64 1.62 0 3.924 0.684 6.588 2.124-1.292 1.016-2.572 2.108-3.804 3.344-1.22 1.216-2.312 2.488-3.336 3.772C36.328 13.784 35.924 12.988 35.612 12.204zM37.84 32.276c-1.152 0-2.012-0.276-2.568-0.836-1.112-1.108-1.104-3.584 0.02-6.612 0.376-1.008 0.876-2.052 1.452-3.092 1.168 1.496 2.424 2.98 3.844 4.404 1.416 1.412 2.892 2.7 4.36 3.86C42.324 31.44 39.828 32.276 37.84 32.276zM60.729 31.44c-1.156 1.152-4.444 0.752-8.597-1.484 1.276-1.02 2.548-2.116 3.765-3.344 1.224-1.22 2.312-2.488 3.336-3.772 0.436 0.804 0.84 1.6 1.156 2.388C61.552 28.104 61.684 30.488 60.729 31.44z" fill="#ffffff" data-fill-palette-color="accent"></path><path d="M48 12.712c-3.308 0-6 2.692-6 6s2.692 6 6 6c3.309 0 6-2.692 6-6S51.309 12.712 48 12.712z" fill="#ffffff" data-fill-palette-color="accent"></path></svg></g></svg></g></svg></g></svg></g><g><path d="M0 247.2v-247.2h395.52v247.2zM392.774 244.454v-241.708h-390.028v241.708z" fill="#ffffff" fill-rule="nonzero" stroke="none" stroke-width="1" stroke-linecap="butt" stroke-linejoin="miter" stroke-miterlimit="10" stroke-dasharray="" stroke-dashoffset="0" font-family="none" font-weight="none" font-size="none" text-anchor="none" style="mix-blend-mode: normal" data-fill-palette-color="tertiary"></path></g></svg></g><defs></defs></svg><rect width="395.52" height="247.2" fill="none" stroke="none" visibility="hidden"></rect></g></svg></g></svg>